<svg width="13" height="19" viewBox="0 0 13 19" fill="none" xmlns="http://www.w3.org/2000/svg">
<path d="M3.16699 12.7662H6.2334V15.8336C6.23331 16.6468 5.91 17.4266 5.33496 18.0016C4.75993 18.5766 3.9802 18.8999 3.16699 18.9C2.35366 18.9 1.57316 18.5767 0.998047 18.0016C0.423113 17.4266 0.0996958 16.6468 0.0996094 15.8336C0.0996094 15.0203 0.422936 14.2398 0.998047 13.6647C1.57316 13.0896 2.35366 12.7662 3.16699 12.7662Z" fill="white" stroke="#868686" stroke-width="0.2"/>
<path d="M3.16699 6.43298H6.2334V12.5668H3.16699C2.35366 12.5668 1.57316 12.2434 0.998047 11.6683C0.423114 11.0933 0.099696 10.3135 0.0996094 9.50037C0.0996094 8.68704 0.422936 7.90653 0.998047 7.33142C1.57316 6.75631 2.35366 6.43298 3.16699 6.43298Z" fill="white" stroke="#868686" stroke-width="0.2"/>
<path d="M3.16406 0.0996094H6.23047V6.2334H3.16699C2.35366 6.2334 1.57316 5.91007 0.998047 5.33496C0.423114 4.75994 0.099696 3.98013 0.0996094 3.16699C0.0996091 2.35414 0.422558 1.57405 0.99707 0.999023C1.57161 0.42403 2.35122 0.100299 3.16406 0.0996094Z" fill="white" stroke="#868686" stroke-width="0.2"/>
<path d="M9.50098 0.0996094C10.3141 0.0996961 11.0939 0.423114 11.6689 0.998047C12.2441 1.57316 12.5674 2.35366 12.5674 3.16699C12.5673 3.9802 12.244 4.75993 11.6689 5.33496C11.0939 5.90999 10.3142 6.23331 9.50098 6.2334H6.43359V0.0996094H9.50098Z" fill="white" stroke="#868686" stroke-width="0.2"/>
<path d="M9.50098 6.43298C10.3141 6.43307 11.0939 6.75649 11.6689 7.33142C12.2441 7.90653 12.5674 8.68704 12.5674 9.50037C12.5673 10.3136 12.244 11.0933 11.6689 11.6683C11.0939 12.2434 10.3142 12.5667 9.50098 12.5668C8.68765 12.5668 7.90714 12.2434 7.33203 11.6683C6.7571 11.0933 6.43368 10.3135 6.43359 9.50037C6.43359 8.68704 6.75692 7.90653 7.33203 7.33142C7.90714 6.75631 8.68765 6.43298 9.50098 6.43298Z" fill="white" stroke="#868686" stroke-width="0.2"/>
</svg>
