<svg width="19" height="19" viewBox="0 0 19 19" fill="none" xmlns="http://www.w3.org/2000/svg">
<g clip-path="url(#clip0_138_278)">
<mask id="mask0_138_278" style="mask-type:luminance" maskUnits="userSpaceOnUse" x="0" y="0" width="19" height="19">
<path d="M0 0.0233154H18.9767V19H0V0.0233154Z" fill="white"/>
</mask>
<g mask="url(#mask0_138_278)">
<path d="M18.6185 8.66672L10.3328 0.381688C10.2193 0.268113 10.0845 0.178017 9.93621 0.116547C9.78787 0.0550765 9.62888 0.0234375 9.46831 0.0234375C9.30774 0.0234375 9.14875 0.0550765 9.00042 0.116547C8.85208 0.178017 8.71731 0.268113 8.60381 0.381688L6.8839 2.10243L9.06601 4.28454C9.32255 4.19741 9.59836 4.18381 9.86223 4.24527C10.1261 4.30673 10.3675 4.4408 10.5592 4.63232C10.7519 4.82522 10.8864 5.06847 10.9473 5.33424C11.0083 5.60001 10.9932 5.87757 10.9038 6.13518L13.0077 8.23839C13.2654 8.1489 13.543 8.13383 13.8089 8.1949C14.0747 8.25597 14.318 8.39072 14.5107 8.5837C14.6458 8.71871 14.7529 8.879 14.826 9.05542C14.8991 9.23183 14.9367 9.42091 14.9367 9.61187C14.9367 9.80282 14.8991 9.99191 14.826 10.1683C14.7529 10.3447 14.6458 10.505 14.5107 10.64C14.2377 10.9128 13.8676 11.0659 13.4818 11.0659C13.0959 11.0659 12.7258 10.9128 12.4528 10.64C12.25 10.4369 12.1118 10.1783 12.0556 9.8968C11.9995 9.6153 12.0279 9.32348 12.1372 9.05808L10.1752 7.09674V12.2592C10.3823 12.3615 10.5621 12.5116 10.6995 12.6972C10.837 12.8828 10.9283 13.0985 10.9659 13.3264C11.0034 13.5543 10.9861 13.7878 10.9154 14.0077C10.8448 14.2276 10.7227 14.4275 10.5594 14.5908C10.4244 14.7258 10.2641 14.833 10.0877 14.906C9.91123 14.9791 9.72215 15.0167 9.5312 15.0167C9.34024 15.0167 9.15116 14.9791 8.97475 14.906C8.79833 14.833 8.63804 14.7258 8.50303 14.5908C8.36796 14.4558 8.26082 14.2955 8.18771 14.119C8.11461 13.9426 8.07699 13.7535 8.07699 13.5625C8.07699 13.3715 8.11461 13.1824 8.18771 13.006C8.26082 12.8296 8.36796 12.6693 8.50303 12.5343C8.63909 12.3979 8.80081 12.2899 8.97886 12.2164V7.00649C8.80154 6.93346 8.6404 6.82611 8.50469 6.69061C8.36899 6.55511 8.26139 6.39414 8.18809 6.21693C8.11478 6.03973 8.0772 5.84979 8.07752 5.65802C8.07784 5.46625 8.11605 5.27643 8.18994 5.09947L6.0384 2.94751L0.356572 8.6279C0.127613 8.8573 -0.000976562 9.16818 -0.000976562 9.49229C-0.000976563 9.81641 0.127613 10.1273 0.356572 10.3567L8.64264 18.6428C8.87204 18.8717 9.18287 19.0002 9.50693 19.0002C9.831 19.0002 10.1418 18.8717 10.3712 18.6428L18.6185 10.3955C18.8474 10.1661 18.976 9.85523 18.976 9.53112C18.976 9.207 18.8474 8.89613 18.6185 8.66672Z" fill="white"/>
</g>
</g>
<defs>
<clipPath id="clip0_138_278">
<rect width="19" height="19" fill="white"/>
</clipPath>
</defs>
</svg>
