<svg width="19" height="19" viewBox="0 0 19 19" fill="none" xmlns="http://www.w3.org/2000/svg">
<g clip-path="url(#clip0_152_29)">
<path d="M0.460938 13.1515C0.460938 12.8665 0.500719 12.6261 0.579688 12.4313C0.655901 12.2456 0.774436 12.0803 0.925844 11.9486C1.07547 11.8254 1.24951 11.7354 1.43647 11.6844C1.63122 11.6297 1.84022 11.6024 2.06584 11.6024C2.2692 11.6011 2.47171 11.6287 2.66731 11.6844C2.86147 11.739 3.03188 11.8269 3.17794 11.9486C3.324 12.0703 3.43919 12.2312 3.52409 12.4313C3.609 12.6261 3.65175 12.8659 3.65175 13.1515C3.65175 13.4246 3.609 13.6586 3.52409 13.8533C3.44604 14.038 3.32779 14.2029 3.17794 14.3361C3.03247 14.4637 2.86206 14.5546 2.66731 14.6092C2.4728 14.6707 2.26985 14.7013 2.06584 14.7C1.84022 14.7 1.63122 14.6703 1.43647 14.6092C1.24789 14.5577 1.07336 14.4643 0.925844 14.3361C0.779781 14.2084 0.664594 14.0475 0.579688 13.8533C0.500719 13.6592 0.460938 13.4258 0.460938 13.1515ZM5.60044 18.9382C5.30356 18.9382 5.00788 18.9168 4.69794 18.8747C4.388 18.8325 4.12972 18.7773 3.92369 18.7108V16.524C4.11191 16.5846 4.28825 16.6273 4.45806 16.6517C4.64158 16.6834 4.82757 16.6987 5.01381 16.6974C5.16581 16.6974 5.30831 16.6736 5.44131 16.6244C5.58339 16.5828 5.70831 16.4966 5.79756 16.3786C5.90088 16.2634 5.98281 16.1054 6.04338 15.9047C6.10394 15.7106 6.13422 15.4582 6.13422 15.1483V4.26783H8.91297V15.558C8.91297 16.0259 8.85241 16.4629 8.73069 16.8642C8.6252 17.2604 8.42858 17.6263 8.15653 17.933C7.89528 18.2429 7.55506 18.4852 7.13528 18.6621C6.7155 18.8391 6.20606 18.9263 5.60459 18.9263M6.02022 1.62208C6.02022 1.36083 6.06 1.1453 6.13897 0.968957C6.21794 0.792613 6.32422 0.653082 6.45781 0.54977C6.59734 0.44052 6.75825 0.36452 6.94053 0.32177C7.12875 0.27902 7.32647 0.258239 7.53309 0.258239C7.72925 0.256894 7.9249 0.278213 8.11616 0.32177C8.28956 0.360223 8.45172 0.438256 8.58997 0.54977C8.73395 0.658485 8.84694 0.803008 8.91772 0.968957C9.00263 1.13936 9.04538 1.35489 9.04538 1.62208C9.04538 1.87739 9.00263 2.09293 8.91772 2.27521C8.83875 2.45155 8.7295 2.59405 8.58997 2.70271C8.44895 2.80976 8.2878 2.8873 8.11616 2.93071C7.92492 2.97446 7.72927 2.99598 7.53309 2.99483C7.32647 2.99483 7.12934 2.97405 6.94053 2.93071C6.76665 2.88593 6.60285 2.80856 6.45781 2.70271C6.32422 2.59346 6.21794 2.45036 6.13897 2.27521C6.06 2.10005 6.02022 1.88333 6.02022 1.62208ZM18.5602 11.4296C18.5602 11.964 18.4628 12.4319 18.2633 12.8327C18.0728 13.2295 17.788 13.5736 17.4339 13.8349C17.0753 14.1021 16.6412 14.3028 16.1306 14.4364C15.62 14.57 15.05 14.6371 14.4176 14.6371C14.0833 14.6371 13.7734 14.6252 13.4884 14.6015C13.2162 14.5848 12.9454 14.5512 12.6773 14.5011C12.422 14.4524 12.1762 14.3919 11.9393 14.3188C11.694 14.2427 11.4537 14.1515 11.2197 14.0457V11.7503C11.475 11.8779 11.7422 11.9878 12.0213 12.0964L12.8685 12.3696L13.6796 12.5429C13.9235 12.5835 14.1703 12.6047 14.4176 12.6065C14.667 12.6065 14.8796 12.5857 15.0553 12.5429C15.2317 12.4942 15.3742 12.4242 15.4828 12.3517C15.598 12.2668 15.6805 12.1695 15.7286 12.0549C15.7829 11.941 15.8109 11.8164 15.8106 11.6903C15.8106 11.5626 15.7892 11.4504 15.747 11.3531C15.7114 11.2497 15.6283 11.1435 15.4828 11.0342C15.3433 10.919 15.1367 10.7967 14.8629 10.6518L13.7788 10.1175L12.6209 9.52489C12.2991 9.32421 12.0319 9.10927 11.8194 8.85989C11.6123 8.61604 11.4544 8.33436 11.3545 8.03043C11.2512 7.71455 11.2001 7.34168 11.2001 6.90943C11.2001 6.43561 11.2909 6.02236 11.4732 5.67027C11.654 5.31352 11.9199 5.00681 12.2475 4.77727C12.5818 4.53977 12.9825 4.36402 13.4504 4.24289C13.9242 4.12118 14.4497 4.06061 15.0268 4.06061C15.6342 4.06061 16.2113 4.13068 16.7582 4.27021C17.305 4.40974 17.8667 4.61933 18.4444 4.89958L17.6061 6.86786C17.1441 6.64936 16.7036 6.47005 16.285 6.33052C15.8799 6.1932 15.4552 6.12242 15.0274 6.12093C14.651 6.12093 14.3773 6.18802 14.208 6.32161C14.0442 6.45521 13.9622 6.63749 13.9622 6.86786C13.9622 6.98958 13.9836 7.10536 14.0258 7.19621C14.0685 7.28764 14.1534 7.38443 14.2811 7.49308C14.4087 7.59046 14.588 7.69971 14.8184 7.82083L15.7209 8.24833L16.887 8.8124C17.2123 8.97981 17.5128 9.19141 17.78 9.44118C18.0268 9.67489 18.2224 9.95735 18.3542 10.2706C18.4878 10.5865 18.5549 10.9695 18.5549 11.419" fill="white"/>
</g>
<defs>
<clipPath id="clip0_152_29">
<rect width="19" height="19" fill="white"/>
</clipPath>
</defs>
</svg>
