<svg width="19" height="19" viewBox="0 0 19 19" fill="none" xmlns="http://www.w3.org/2000/svg">
<g clip-path="url(#clip0_138_271)">
<path d="M8.7092 18.997C8.46455 18.9838 7.96402 18.9098 7.54471 18.8249C6.39636 18.5924 5.22304 18.1021 4.22555 17.4378C3.14489 16.7181 2.16939 15.7231 1.46995 14.6272C0.767537 13.5267 0.313513 12.3372 0.0990102 11.0356C0.0013918 10.4432 0.000124377 10.4238 7.8893e-06 9.51613C-9.75296e-05 8.65313 -0.000150432 8.65451 0.0709488 8.15643C0.214997 7.14765 0.496927 6.23224 0.940691 5.33243C1.57326 4.04979 2.41957 2.98743 3.5143 2.10184C4.77844 1.0792 6.32219 0.379755 7.89336 0.117766C8.40215 0.0329264 8.67369 0.00827296 9.16942 0.00190962C9.86222 -0.00698328 10.4034 0.0152361 10.7662 0.0674718C11.3289 0.148474 11.8104 0.254399 12.3143 0.408029C13.4164 0.744098 14.5181 1.3292 15.4382 2.06714C15.9481 2.47618 16.5288 3.05714 16.9246 3.55446C17.6645 4.48403 18.2301 5.54746 18.5835 6.67347C18.7878 7.32451 18.9501 8.1599 18.989 8.76124C19.0115 9.10931 18.9971 10.2991 18.9677 10.5272C18.8972 11.0724 18.8278 11.4499 18.7226 11.8591C18.1423 14.1173 16.7798 16.0538 14.829 17.3933L14.6521 17.5147L14.5905 17.4202C14.525 17.3198 13.5594 15.859 12.9884 14.9968C12.6247 14.4475 11.9979 13.498 11.2256 12.3264C8.16358 7.68159 7.10487 6.09012 7.04859 6.04753C6.96519 5.98441 6.90222 5.97531 6.54757 5.97513C6.16374 5.97492 6.14358 5.98016 6.01253 6.1133L5.93394 6.19316V9.92736C5.93394 13.9939 5.92824 13.7039 6.01016 13.8013C6.02964 13.8245 6.07592 13.8629 6.11301 13.8867L6.18044 13.9299H6.47637C6.64602 13.9299 6.79839 13.9234 6.83344 13.9145C6.90349 13.8969 6.99142 13.8272 7.03728 13.753C7.06575 13.707 7.06974 13.6774 7.0791 13.443C7.08479 13.3004 7.0899 12.4998 7.09046 11.6638C7.0918 9.67037 7.1062 8.11253 7.12322 8.11821C7.1305 8.12063 7.18438 8.1929 7.24296 8.2788C7.70716 8.95953 8.8318 10.6185 9.95319 12.2768C10.8844 13.6537 10.9769 13.785 11.796 14.8916C12.2703 15.5324 12.7187 16.1382 12.7924 16.2379C12.8661 16.3377 13.171 16.748 13.4699 17.1498C13.9849 17.842 14.012 17.8815 13.9867 17.9006C13.9719 17.9117 13.8501 17.9759 13.7158 18.0433C12.794 18.5063 11.8166 18.7991 10.6566 18.9598C10.3959 18.9959 10.3711 18.9969 9.59478 18.9994C9.15757 19.0008 8.75906 18.9997 8.7092 18.997ZM12.9658 7.64098C12.9605 6.04885 12.9592 5.97275 12.9343 5.92404C12.8924 5.84187 12.8415 5.79027 12.7644 5.75189C12.6936 5.71661 12.6867 5.71594 12.3933 5.71594C12.0538 5.71594 12.0136 5.72342 11.9224 5.80376C11.7979 5.91329 11.8002 5.90103 11.7896 6.51084C11.7844 6.80614 11.7795 7.91591 11.7787 8.977L11.7773 10.9063L12.3665 11.8095L12.9558 12.7127L12.9635 11.0098C12.9678 10.0732 12.9688 8.55726 12.9658 7.64098ZM14.0784 17.8421C14.0784 17.8384 14.0988 17.8256 14.1238 17.8135L14.1691 17.7915L14.1362 17.8201C14.1053 17.8469 14.0784 17.8571 14.0784 17.8421ZM14.3295 17.7032C14.3295 17.6994 14.342 17.6895 14.3573 17.6813C14.3727 17.6731 14.3852 17.6695 14.3852 17.6734C14.3852 17.6772 14.3727 17.6871 14.3573 17.6953C14.342 17.7035 14.3295 17.7071 14.3295 17.7032ZM14.4271 17.6482C14.4271 17.6453 14.4381 17.6343 14.4515 17.6238C14.4736 17.6064 14.4741 17.6069 14.4567 17.629C14.4385 17.6523 14.4271 17.6596 14.4271 17.6482ZM14.5317 17.5753C14.5819 17.5365 14.6164 17.5256 14.5735 17.562C14.5505 17.5815 14.5254 17.5973 14.5177 17.5971C14.5101 17.5969 14.5163 17.5871 14.5317 17.5753Z" fill="white"/>
</g>
<defs>
<clipPath id="clip0_138_271">
<rect width="19" height="19" fill="white"/>
</clipPath>
</defs>
</svg>
