<svg width="19" height="19" viewBox="0 0 19 19" fill="none" xmlns="http://www.w3.org/2000/svg">
<g clip-path="url(#clip0_2713_167)">
<path d="M9.49938 11.181C10.4364 11.181 11.196 10.4214 11.196 9.48437C11.196 8.54734 10.4364 7.78772 9.49938 7.78772C8.56235 7.78772 7.80273 8.54734 7.80273 9.48437C7.80273 10.4214 8.56235 11.181 9.49938 11.181Z" fill="white"/>
<path fill-rule="evenodd" clip-rule="evenodd" d="M9.49981 6.03467C11.7778 6.03467 13.894 6.36154 15.4896 6.91084C17.412 7.5727 18.594 8.5759 18.594 9.48431C18.594 10.4309 17.3413 11.4967 15.2769 12.1807C13.7161 12.6978 11.6622 12.9678 9.49981 12.9678C7.28277 12.9678 5.18336 12.7144 3.60498 12.175C1.60805 11.4925 0.405273 10.4129 0.405273 9.48431C0.405273 8.58328 1.53385 7.58782 3.42929 6.92697C5.03083 6.36861 7.19927 6.03467 9.49951 6.03467H9.49981Z" stroke="white"/>
<path fill-rule="evenodd" clip-rule="evenodd" d="M6.49637 7.76947C7.63441 5.79614 8.9747 4.12625 10.2477 3.01844C11.7814 1.6837 13.241 1.16098 14.0279 1.61474C14.8479 2.08764 15.1454 3.70529 14.7065 5.83534C14.3751 7.44578 13.5826 9.35979 12.5023 11.233C11.3947 13.1536 10.1264 14.8457 8.8708 15.9432C7.28194 17.3321 5.74583 17.8347 4.94142 17.3708C4.16086 16.921 3.86236 15.4458 4.23682 13.4737C4.5532 11.8073 5.3472 9.76208 6.49599 7.76944L6.49637 7.76947Z" stroke="white"/>
<path fill-rule="evenodd" clip-rule="evenodd" d="M6.49934 11.2381C5.35808 9.26697 4.58107 7.27142 4.25673 5.61532C3.86632 3.61994 4.14235 2.09432 4.92853 1.63924C5.74779 1.16495 7.29779 1.71513 8.92403 3.15911C10.1536 4.25082 11.4162 5.89302 12.4996 7.76448C13.6104 9.68319 14.4429 11.6271 14.7667 13.263C15.1765 15.3332 14.8449 16.915 14.0412 17.3803C13.2614 17.8317 11.8344 17.3537 10.3129 16.0444C9.02728 14.9381 7.65186 13.2287 6.49934 11.238V11.2381Z" stroke="white"/>
</g>
<defs>
<clipPath id="clip0_2713_167">
<rect width="19" height="19" fill="white"/>
</clipPath>
</defs>
</svg>
