<svg width="19" height="19" viewBox="0 0 19 19" fill="none" xmlns="http://www.w3.org/2000/svg">
<g clip-path="url(#clip0_2949_3)">
<path d="M11.0431 18.5762C10.5605 19.1839 9.58205 18.8509 9.57042 18.075L9.40039 6.72546H17.0318C18.414 6.72546 19.1849 8.32197 18.3254 9.40452L11.0431 18.5762Z" fill="url(#paint0_linear_2949_3)"/>
<path d="M11.0431 18.5762C10.5605 19.1839 9.58205 18.8509 9.57042 18.075L9.40039 6.72546H17.0318C18.414 6.72546 19.1849 8.32197 18.3254 9.40452L11.0431 18.5762Z" fill="url(#paint1_linear_2949_3)" fill-opacity="0.2"/>
<path d="M7.93857 0.313873C8.42114 -0.293909 9.39963 0.0391118 9.41125 0.815092L9.48576 12.1646H1.94989C0.567595 12.1646 -0.203334 10.5681 0.656215 9.48552L7.93857 0.313873Z" fill="white"/>
</g>
<defs>
<linearGradient id="paint0_linear_2949_3" x1="9.40039" y1="9.24193" x2="16.1829" y2="12.0865" gradientUnits="userSpaceOnUse">
<stop stop-color="#DFDFDF"/>
<stop offset="1" stop-color="white"/>
</linearGradient>
<linearGradient id="paint1_linear_2949_3" x1="6.39338" y1="5.1248" x2="9.48656" y2="10.9475" gradientUnits="userSpaceOnUse">
<stop/>
<stop offset="1" stop-opacity="0"/>
</linearGradient>
<clipPath id="clip0_2949_3">
<rect width="18.89" height="18.89" fill="white"/>
</clipPath>
</defs>
</svg>
