<svg width="19" height="11" viewBox="0 0 19 11" fill="none" xmlns="http://www.w3.org/2000/svg">
<g clip-path="url(#clip0_138_258)">
<mask id="mask0_138_258" style="mask-type:luminance" maskUnits="userSpaceOnUse" x="0" y="0" width="19" height="11">
<path d="M0 0H19V10.8H0V0Z" fill="white"/>
</mask>
<g mask="url(#mask0_138_258)">
<path fill-rule="evenodd" clip-rule="evenodd" d="M9.5 0C6.96667 0 5.38333 1.2 4.75 3.6C5.7 2.4 6.80833 1.95 8.075 2.25C8.7977 2.421 9.31422 2.918 9.88598 3.46767C10.8173 4.36333 11.8954 5.4 14.25 5.4C16.7833 5.4 18.3667 4.2 19 1.8C18.05 3 16.9417 3.45 15.675 3.15C14.9523 2.979 14.4358 2.482 13.864 1.93233C12.9327 1.03667 11.8546 0 9.5 0ZM4.75 5.4C2.21667 5.4 0.633333 6.6 0 9C0.95 7.8 2.05833 7.35 3.325 7.65C4.0477 7.82133 4.56422 8.318 5.13598 8.86767C6.06733 9.76333 7.14541 10.8 9.5 10.8C12.0333 10.8 13.6167 9.6 14.25 7.2C13.3 8.4 12.1917 8.85 10.925 8.55C10.2023 8.379 9.68578 7.882 9.11402 7.33233C8.18267 6.43667 7.10459 5.4 4.75 5.4Z" fill="white"/>
</g>
</g>
<defs>
<clipPath id="clip0_138_258">
<rect width="19" height="11" fill="white"/>
</clipPath>
</defs>
</svg>
