<svg width="19" height="19" viewBox="0 0 19 19" fill="none" xmlns="http://www.w3.org/2000/svg">
<g clip-path="url(#clip0_138_274)">
<path d="M0.635135 19.2851C0.596046 19.281 0.568982 19.2697 0.574995 19.26C0.581007 19.2503 0.572181 19.2423 0.555375 19.2423C0.486143 19.2423 0.319511 19.142 0.22787 19.0451C0.137459 18.9495 0.0559815 18.805 0.0559815 18.7402C0.0559815 18.7249 0.0486566 18.7169 0.0397033 18.7224C0.03075 18.728 0.0181026 18.6882 0.0115969 18.634C-0.00386564 18.5053 -0.00386564 0.792997 0.0115969 0.664276C0.0181005 0.610116 0.03075 0.570331 0.0397033 0.575865C0.0486566 0.581398 0.0559815 0.573406 0.0559815 0.558105C0.0559815 0.493349 0.137459 0.34884 0.22787 0.253244C0.319511 0.156348 0.486143 0.0559817 0.555375 0.0559817C0.572177 0.0559817 0.581398 0.0486565 0.575864 0.0397035C0.570329 0.0307505 0.610116 0.0181025 0.664276 0.0115967C0.792997 -0.00386557 18.5053 -0.00386557 18.634 0.0115967C18.6882 0.0181024 18.728 0.0307505 18.7224 0.0397035C18.7169 0.0486565 18.7261 0.0559817 18.7429 0.0559817C18.8122 0.0559817 18.9788 0.156348 19.0704 0.253244C19.1608 0.34884 19.2423 0.493349 19.2423 0.558105C19.2423 0.573406 19.2496 0.581398 19.2586 0.575865C19.2676 0.570331 19.2802 0.610116 19.2867 0.664276C19.3022 0.792997 19.3022 18.5053 19.2867 18.634C19.2802 18.6882 19.2676 18.728 19.2586 18.7224C19.2496 18.7169 19.2423 18.7261 19.2423 18.7429C19.2423 18.8122 19.142 18.9788 19.0451 19.0704C18.9495 19.1608 18.805 19.2423 18.7402 19.2423C18.7249 19.2423 18.7169 19.2497 18.7224 19.2586C18.728 19.2676 18.6882 19.2802 18.634 19.2867C18.5294 19.2993 0.755819 19.2977 0.635135 19.2851ZM14.5305 17.6213C15.551 17.5331 16.2602 17.2716 16.7528 16.802C17.1379 16.4347 17.3566 16.0041 17.4315 15.4655C17.4576 15.2778 17.4577 14.8015 17.4317 14.6141C17.3882 14.3014 17.2486 13.9382 17.0721 13.6783C16.9644 13.5196 16.7055 13.2533 16.5116 13.1016C16.2026 12.8598 15.7271 12.6038 15.0677 12.3242C14.6775 12.1588 14.2683 11.956 14.089 11.8392C13.9146 11.7256 13.6826 11.493 13.6246 11.3737C13.5854 11.2931 13.5788 11.2521 13.5788 11.091C13.5788 10.9293 13.5854 10.8891 13.6249 10.8083C13.7313 10.5904 14.0032 10.4109 14.3704 10.3161C14.6309 10.2488 15.089 10.2334 15.4541 10.2797C15.9882 10.3474 16.4804 10.5116 16.9092 10.7651C16.9787 10.8062 17.0444 10.8343 17.0552 10.8276C17.0685 10.8194 17.0749 10.5202 17.0749 9.91234V9.00922L17.0325 8.98176C16.9736 8.94362 16.5948 8.83155 16.3682 8.78524C15.8773 8.68493 15.2931 8.63912 14.719 8.65593C13.5524 8.69011 12.6677 8.99971 12.0993 9.57273C11.6479 10.0278 11.4394 10.5561 11.4398 11.2442C11.4401 11.9033 11.6423 12.4244 12.0707 12.8697C12.4241 13.2371 12.8498 13.5129 13.4563 13.7676C14.4978 14.2049 14.8136 14.3754 15.079 14.6437C15.2804 14.8474 15.366 15.084 15.3228 15.3178C15.2633 15.6397 15.016 15.8523 14.5564 15.9766C14.3784 16.0247 14.3501 16.0269 13.8992 16.0273C13.4581 16.0276 13.413 16.0244 13.1924 15.977C12.6221 15.8544 12.1201 15.6281 11.6739 15.2923C11.5907 15.2296 11.5219 15.1908 11.5053 15.1971C11.4811 15.2064 11.4773 15.338 11.4773 16.1802V17.1524L11.6182 17.2166C12.0581 17.4171 12.7019 17.5679 13.3338 17.6185C13.6267 17.6419 14.2741 17.6434 14.5305 17.6213ZM13.8388 17.5886C13.9196 17.5851 14.0468 17.5851 14.1215 17.5887C14.1962 17.5922 14.13 17.5951 13.9746 17.5951C13.8191 17.5951 13.758 17.5922 13.8388 17.5886ZM13.3856 17.5708C13.4037 17.5661 13.4334 17.5661 13.4516 17.5708C13.4697 17.5755 13.4549 17.5794 13.4186 17.5794C13.3823 17.5794 13.3674 17.5755 13.3856 17.5708ZM14.4791 17.5707C14.4974 17.5659 14.5229 17.5663 14.5356 17.5714C14.5484 17.5766 14.5334 17.5805 14.5023 17.5801C14.4712 17.5798 14.4607 17.5755 14.4791 17.5707ZM13.1688 17.5525C13.1818 17.5472 13.203 17.5472 13.216 17.5525C13.2289 17.5577 13.2183 17.562 13.1924 17.562C13.1665 17.562 13.1559 17.5577 13.1688 17.5525ZM14.6966 17.552C14.7102 17.5466 14.7265 17.5473 14.7328 17.5535C14.739 17.5598 14.7279 17.5642 14.708 17.5634C14.6861 17.5625 14.6816 17.558 14.6966 17.552ZM13.0192 17.5332C13.0329 17.5277 13.0491 17.5284 13.0554 17.5347C13.0616 17.5409 13.0505 17.5454 13.0306 17.5446C13.0087 17.5437 13.0042 17.5392 13.0192 17.5332ZM14.8474 17.5332C14.861 17.5277 14.8773 17.5284 14.8835 17.5347C14.8898 17.5409 14.8787 17.5454 14.8588 17.5446C14.8368 17.5437 14.8324 17.5392 14.8474 17.5332ZM12.7554 17.4955C12.769 17.49 12.7852 17.4907 12.7915 17.497C12.7978 17.5032 12.7866 17.5077 12.7668 17.5069C12.7448 17.506 12.7404 17.5015 12.7554 17.4955ZM11.5193 16.1949C11.5169 15.685 11.5214 15.2638 11.5292 15.259C11.542 15.2511 11.5418 15.9468 11.5287 16.7922C11.5258 16.9736 11.5216 16.7048 11.5193 16.1949ZM16.5283 16.9358C16.5283 16.9319 16.5432 16.9171 16.5613 16.9029C16.5912 16.8794 16.5919 16.8801 16.5684 16.91C16.5438 16.9414 16.5283 16.9513 16.5283 16.9358ZM16.6508 16.8299C16.6696 16.8091 16.6892 16.7922 16.6944 16.7922C16.6996 16.7922 16.6885 16.8091 16.6697 16.8299C16.6509 16.8506 16.6313 16.8676 16.6262 16.8676C16.621 16.8676 16.6321 16.8506 16.6508 16.8299ZM16.8582 16.6225C16.8769 16.6018 16.8965 16.5849 16.9017 16.5849C16.9069 16.5849 16.8958 16.6018 16.877 16.6225C16.8582 16.6433 16.8387 16.6602 16.8335 16.6602C16.8283 16.6602 16.8394 16.6433 16.8582 16.6225ZM13.5929 16.0818C13.611 16.0771 13.6407 16.0771 13.6589 16.0818C13.677 16.0866 13.6622 16.0905 13.6259 16.0905C13.5896 16.0905 13.5748 16.0866 13.5929 16.0818ZM14.1398 16.0818C14.1582 16.077 14.1836 16.0773 14.1964 16.0825C14.2091 16.0876 14.1941 16.0916 14.163 16.0912C14.1319 16.0908 14.1215 16.0865 14.1398 16.0818ZM13.4339 16.0631C13.4475 16.0577 13.4637 16.0583 13.47 16.0646C13.4763 16.0709 13.4651 16.0753 13.4453 16.0745C13.4233 16.0736 13.4188 16.0691 13.4339 16.0631ZM13.302 16.0443C13.3156 16.0388 13.3318 16.0395 13.3381 16.0457C13.3443 16.052 13.3332 16.0565 13.3133 16.0556C13.2914 16.0547 13.2869 16.0503 13.302 16.0443ZM15.1525 15.7296C15.1525 15.7257 15.1673 15.7109 15.1855 15.6966C15.2154 15.6732 15.216 15.6739 15.1926 15.7038C15.168 15.7352 15.1525 15.7451 15.1525 15.7296ZM17.3779 15.443C17.3789 15.4211 17.3833 15.4166 17.3893 15.4317C17.3948 15.4453 17.3941 15.4615 17.3878 15.4678C17.3816 15.474 17.3771 15.4629 17.3779 15.443ZM17.4001 15.2184C17.4003 15.177 17.4041 15.1622 17.4086 15.1857C17.4131 15.2091 17.413 15.243 17.4083 15.2611C17.4036 15.2791 17.3999 15.2599 17.4001 15.2184ZM17.4001 14.8415C17.4003 14.8 17.4041 14.7853 17.4086 14.8087C17.4131 14.8322 17.413 14.8661 17.4083 14.8841C17.4036 14.9021 17.3999 14.883 17.4001 14.8415ZM17.3779 14.6326C17.3789 14.6107 17.3833 14.6062 17.3893 14.6212C17.3948 14.6348 17.3941 14.6511 17.3878 14.6574C17.3816 14.6636 17.3771 14.6525 17.3779 14.6326ZM15.0945 14.5918L15.0488 14.5399L15.1007 14.5856C15.1292 14.6108 15.1525 14.6341 15.1525 14.6375C15.1525 14.6523 15.1372 14.6402 15.0945 14.5918ZM16.8564 13.4892L16.8205 13.4468L16.8629 13.4827C16.9027 13.5165 16.9139 13.5316 16.8988 13.5316C16.8952 13.5316 16.8761 13.5125 16.8564 13.4892ZM16.64 13.2725L16.5943 13.2207L16.6461 13.2663C16.6746 13.2915 16.698 13.3148 16.698 13.3182C16.698 13.333 16.6827 13.3209 16.64 13.2725ZM12.3796 13.1029C12.3561 13.073 12.3568 13.0723 12.3867 13.0957C12.4048 13.11 12.4197 13.1248 12.4197 13.1287C12.4197 13.1442 12.4042 13.1343 12.3796 13.1029ZM12.2577 12.9992L12.2218 12.9568L12.2642 12.9927C12.304 13.0264 12.3152 13.0416 12.3001 13.0416C12.2965 13.0416 12.2774 13.0225 12.2577 12.9992ZM12.0315 12.773L11.9956 12.7306L12.038 12.7665C12.0779 12.8003 12.089 12.8154 12.0739 12.8154C12.0703 12.8154 12.0513 12.7964 12.0315 12.773ZM13.8408 11.7176L13.8049 11.6752L13.8473 11.7111C13.8872 11.7448 13.8983 11.76 13.8832 11.76C13.8797 11.76 13.8606 11.7409 13.8408 11.7176ZM11.4977 11.5794C11.4986 11.5574 11.503 11.553 11.509 11.568C11.5145 11.5816 11.5138 11.5979 11.5076 11.6041C11.5013 11.6104 11.4968 11.5992 11.4977 11.5794ZM13.6989 11.5762C13.6754 11.5463 13.6761 11.5457 13.706 11.5691C13.7241 11.5834 13.739 11.5982 13.739 11.6021C13.739 11.6176 13.7235 11.6076 13.6989 11.5762ZM11.4842 11.2417C11.4843 11.138 11.4874 11.098 11.4912 11.1528C11.4951 11.2076 11.495 11.2924 11.4912 11.3413C11.4873 11.3902 11.4842 11.3454 11.4842 11.2417ZM13.5143 11.2024C13.5152 11.1805 13.5197 11.176 13.5257 11.1911C13.5311 11.2047 13.5305 11.2209 13.5242 11.2272C13.5179 11.2334 13.5135 11.2223 13.5143 11.2024ZM13.5143 10.9763C13.5152 10.9543 13.5197 10.9499 13.5257 10.9649C13.5311 10.9785 13.5305 10.9947 13.5242 11.001C13.5179 11.0073 13.5135 10.9961 13.5143 10.9763ZM11.4977 10.9009C11.4986 10.8789 11.503 10.8745 11.509 10.8895C11.5145 10.9031 11.5138 10.9194 11.5076 10.9256C11.5013 10.9319 11.4968 10.9208 11.4977 10.9009ZM17.0089 9.89414C17.0089 9.40892 17.0153 9.01586 17.0231 9.02066C17.0309 9.02547 17.0372 9.41853 17.0372 9.89414C17.0372 10.3697 17.0309 10.7628 17.0231 10.7676C17.0153 10.7724 17.0089 10.3794 17.0089 9.89414ZM13.7107 10.5915C13.7295 10.5708 13.7491 10.5538 13.7542 10.5538C13.7594 10.5538 13.7483 10.5708 13.7295 10.5915C13.7108 10.6122 13.6912 10.6292 13.686 10.6292C13.6808 10.6292 13.6919 10.6122 13.7107 10.5915ZM15.5448 10.2394C15.5584 10.2339 15.5746 10.2346 15.5809 10.2408C15.5871 10.2471 15.576 10.2516 15.5561 10.2507C15.5342 10.2498 15.5297 10.2454 15.5448 10.2394ZM14.5836 10.2205C14.5972 10.2151 14.6134 10.2157 14.6197 10.222C14.6259 10.2283 14.6148 10.2327 14.5949 10.2319C14.573 10.231 14.5685 10.2265 14.5836 10.2205ZM15.3928 10.2209C15.4058 10.2157 15.427 10.2157 15.4399 10.2209C15.4529 10.2262 15.4423 10.2304 15.4164 10.2304C15.3904 10.2304 15.3798 10.2262 15.3928 10.2209ZM14.7426 10.2016C14.7607 10.1968 14.7904 10.1968 14.8085 10.2016C14.8267 10.2063 14.8118 10.2102 14.7756 10.2102C14.7393 10.2102 14.7244 10.2063 14.7426 10.2016ZM15.1669 10.2012C15.1903 10.1967 15.2242 10.1969 15.2422 10.2016C15.2603 10.2063 15.2411 10.21 15.1996 10.2098C15.1582 10.2096 15.1434 10.2057 15.1669 10.2012ZM12.1275 9.5926C12.168 9.55114 12.2054 9.51721 12.2106 9.51721C12.2158 9.51721 12.1869 9.55114 12.1464 9.5926C12.1059 9.63406 12.0685 9.66799 12.0634 9.66799C12.0582 9.66799 12.0871 9.63406 12.1275 9.5926ZM16.0159 8.7693C16.0295 8.76386 16.0458 8.76453 16.0521 8.77079C16.0583 8.77705 16.0472 8.78151 16.0273 8.78069C16.0054 8.77979 16.0009 8.77532 16.0159 8.7693ZM14.0558 8.75045C14.0694 8.74501 14.0857 8.74568 14.092 8.75194C14.0982 8.75821 14.0871 8.76266 14.0672 8.76184C14.0453 8.76094 14.0408 8.75647 14.0558 8.75045ZM15.8652 8.75045C15.8788 8.74501 15.895 8.74568 15.9013 8.75194C15.9075 8.75821 15.8964 8.76266 15.8765 8.76184C15.8546 8.76094 15.8501 8.75647 15.8652 8.75045ZM14.2066 8.73161C14.2202 8.72616 14.2365 8.72684 14.2427 8.7331C14.249 8.73936 14.2379 8.74381 14.218 8.74299C14.196 8.74209 14.1916 8.73762 14.2066 8.73161ZM15.6853 8.73139C15.7036 8.72661 15.7291 8.72693 15.7418 8.73211C15.7546 8.73727 15.7396 8.74118 15.7085 8.74079C15.6774 8.74044 15.667 8.73617 15.6853 8.73139ZM14.4037 8.71255C14.422 8.70777 14.4475 8.70808 14.4602 8.71326C14.473 8.71842 14.458 8.72233 14.4269 8.72195C14.3958 8.72159 14.3854 8.71732 14.4037 8.71255ZM15.4116 8.71233C15.435 8.70784 15.4731 8.70784 15.4965 8.71233C15.5198 8.71683 15.5007 8.7205 15.4541 8.7205C15.4074 8.7205 15.3883 8.71682 15.4116 8.71233ZM14.7897 8.69299C14.8338 8.68902 14.9058 8.68902 14.9499 8.69299C14.994 8.69695 14.9579 8.7002 14.8698 8.7002C14.7817 8.7002 14.7456 8.69695 14.7897 8.69299ZM8.24382 17.3392L8.29216 17.3208V13.8148V10.3088H9.49019C10.28 10.3088 10.7006 10.3022 10.7247 10.2893C10.7598 10.2705 10.7611 10.2416 10.7611 9.48264C10.7611 8.89554 10.7554 8.68974 10.7385 8.67288C10.7056 8.63997 3.88092 8.63997 3.84802 8.67288C3.83115 8.68974 3.8254 8.89554 3.8254 9.48264C3.8254 10.2416 3.8267 10.2705 3.86186 10.2893C3.88588 10.3021 4.30362 10.3088 5.08692 10.3088H6.27552V13.815V17.3211L6.31793 17.3382C6.3764 17.3617 8.18217 17.3627 8.24382 17.3392ZM8.24485 13.7955C8.24485 11.8726 8.24706 11.086 8.24976 12.0474C8.25246 13.0089 8.25246 14.5821 8.24976 15.5436C8.24706 16.505 8.24485 15.7184 8.24485 13.7955ZM6.30501 10.2766C6.29478 10.2498 6.29695 10.2476 6.31556 10.2661C6.32844 10.2789 6.33423 10.2941 6.32843 10.2999C6.32262 10.3057 6.31209 10.2952 6.30501 10.2766ZM3.87171 10.2287C3.86673 10.2157 3.86488 9.87007 3.8676 9.46063L3.87255 8.71621L3.88196 9.48424C3.88714 9.90665 3.88898 10.2523 3.88607 10.2523C3.88315 10.2523 3.87669 10.2416 3.87171 10.2287ZM10.7046 9.4833L10.714 8.71621L10.7189 9.46893C10.7217 9.88293 10.7174 10.2281 10.7095 10.236C10.7016 10.2439 10.6994 9.9052 10.7046 9.4833ZM5.59232 8.69265C6.52784 8.68995 8.0587 8.68995 8.99422 8.69265C9.92974 8.69535 9.16431 8.69757 7.29327 8.69757C5.42222 8.69757 4.6568 8.69536 5.59232 8.69265Z" fill="white"/>
</g>
<defs>
<clipPath id="clip0_138_274">
<rect width="18.8934" height="18.8906" fill="white"/>
</clipPath>
</defs>
</svg>
