<svg width="19" height="19" viewBox="0 0 19 19" fill="none" xmlns="http://www.w3.org/2000/svg">
<g clip-path="url(#clip0_2713_159)">
<path d="M17.8812 0L16.3549 17.098L9.4943 19L2.65258 17.1007L1.12793 0H17.8812Z" fill="white"/>
<path d="M9.50488 17.5462L15.0486 16.0092L16.3529 1.39819H9.50488V17.5462Z" fill="#E5E5E5"/>
<path d="M9.50445 7.7406H4.62305L4.81102 9.83791H9.50445V7.7406Z" fill="#13505B"/>
<path d="M9.50423 3.49561H9.49698H4.24512L4.43577 5.59296H9.50423V3.49561Z" fill="#13505B"/>
<path d="M4.90527 10.8866L5.19911 14.1797L9.49534 15.3724L9.50499 15.3697V13.1876L9.4958 13.19L7.15998 12.5593L7.01066 10.8866H5.87564H4.90527Z" fill="#13505B"/>
<path d="M12.0797 9.83796L11.8363 12.558L9.49707 13.1894V15.3714L13.7967 14.1798L13.8283 13.8254L14.3211 8.30385L14.3723 7.74065L14.7509 3.49561H9.49707V5.59296H12.4524L12.2616 7.74065H9.49707V9.83796H12.0797Z" fill="#13505B"/>
</g>
<defs>
<clipPath id="clip0_2713_159">
<rect width="19" height="19" fill="white"/>
</clipPath>
</defs>
</svg>
