<svg width="19" height="19" viewBox="0 0 19 19" fill="none" xmlns="http://www.w3.org/2000/svg">
<g clip-path="url(#clip0_152_63)">
<path d="M9.5 19C14.7467 19 19 14.7467 19 9.5C19 4.25329 14.7467 0 9.5 0C4.25329 0 0 4.25329 0 9.5C0 14.7467 4.25329 19 9.5 19Z" fill="white"/>
<path d="M12.2911 8.37183L11.4302 11.0853C11.4302 10.8775 10.8364 6.37683 10.8364 6.37683C9.47078 6.37683 8.74641 7.34464 8.36641 8.37183L7.31547 11.0912C7.31547 10.8953 7.16703 8.39558 7.16703 8.39558C7.11634 7.85445 6.86896 7.3507 6.47174 6.97974C6.07452 6.60879 5.55505 6.39638 5.01172 6.38277L6.12797 13.199C7.55297 13.199 8.32484 12.2312 8.72266 11.204L9.61328 8.88839C9.61328 8.98339 10.207 13.199 10.207 13.199C10.7897 13.1983 11.3571 13.012 11.8268 12.6672C12.2965 12.3223 12.6442 11.8369 12.8195 11.2812L14.8383 6.37683C13.4133 6.37683 12.6652 7.34464 12.2852 8.37183H12.2911Z" fill="#13505B"/>
</g>
<defs>
<clipPath id="clip0_152_63">
<rect width="19" height="19" fill="white"/>
</clipPath>
</defs>
</svg>
