<svg width="749" height="270" viewBox="0 0 749 270" fill="none" xmlns="http://www.w3.org/2000/svg">
    <path d="M723.938 257.848c-13.66 0-24.77-11.11-24.77-24.77s11.11-24.77 24.77-24.77 24.77 11.11 24.77 24.77-11.11 24.77-24.77 24.77zm0-45.88c-11.64 0-21.11 9.47-21.11 21.11 0 11.64 9.47 21.11 21.11 21.11 11.64 0 21.11-9.47 21.11-21.11 0-11.64-9.47-21.11-21.11-21.11z" fill="#000"/>
    <path d="M260.648 182.248c-2.57 6.82-5.62 13.32-9.17 19.47-.7 1.2-1.41 2.4-2.14 3.59a197.032 197.032 0 0 1-60.06-36.1 170.376 170.376 0 0 1 24.99-8.9l3.52-.94a172.084 172.084 0 0 0 42.87 22.88h-.01z" fill="#FEC578"/>
    <path d="M76.168 70.008c14.807 0 26.81-12.003 26.81-26.81 0-14.807-12.003-26.81-26.81-26.81-14.806 0-26.81 12.003-26.81 26.81 0 14.807 12.004 26.81 26.81 26.81z" fill="#F05C73"/>
    <path d="M227.268 105.308c14.807 0 26.81-12.003 26.81-26.81 0-14.807-12.003-26.81-26.81-26.81-14.806 0-26.81 12.003-26.81 26.81 0 14.807 12.004 26.81 26.81 26.81z" fill="#FEC578"/>
    <path d="M41.698 217.558c14.807 0 26.81-12.003 26.81-26.81 0-14.807-12.003-26.81-26.81-26.81-14.806 0-26.81 12.003-26.81 26.81 0 14.807 12.004 26.81 26.81 26.81z" fill="#0586C0"/>
    <path d="M192.798 252.858c14.807 0 26.81-12.003 26.81-26.81 0-14.807-12.003-26.81-26.81-26.81-14.806 0-26.81 12.003-26.81 26.81 0 14.807 12.004 26.81 26.81 26.81z" fill="#66BD5B"/>
    <path d="M75.068 113.358s.04 0 .05-.01c-.01 0-.04.01-.05.02-.12.04-.23.08-.35.12-.8.26-1.59.53-2.39.78-.13.04-.26.08-.37.13-.03 0-.05.01-.08.02-.33.11-.65.21-.98.3-.92.29-1.85.57-2.78.84 1.17-.34 2.33-.7 3.49-1.07 1.16-.37 2.32-.74 3.47-1.13h-.01zM75.188 113.328c1.56-.54 3.11-1.1 4.66-1.67-.44.17-.9.34-1.34.51-1.06.39-2.12.76-3.19 1.13h-.03c-.03.02-.08.03-.1.04v-.01zM80.068 100.128c-.49.22-.99.43-1.48.65-7.62 3.33-15.52 6.11-23.52 8.25l-3.53.95a171.42 171.42 0 0 0-42.85-22.86c2.54-6.81 5.63-13.33 9.18-19.48.7-1.2 1.41-2.41 2.13-3.59a197.375 197.375 0 0 1 60.07 36.09v-.01zM81.928 110.868c.85-.34 1.68-.66 2.52-1-.13.05-.26.1-.39.16-.34.15-.67.27-1.01.4-.19.09-.38.16-.56.22-.19.07-.38.15-.56.22h-.01c-.25.09-.48.18-.73.27.25-.1.5-.19.74-.28v.01z" fill="#0586C0"/>
    <path d="m153.808 68.478.57 1.88c-.19-.62-.39-1.25-.57-1.88zM154.378 70.358c.34 1.12.71 2.23 1.07 3.34-.02-.07-.05-.13-.07-.2-.28-.87-.57-1.72-.84-2.6-.06-.18-.11-.36-.16-.54zM153.758 68.278c-.56-1.93-1.11-3.87-1.6-5.82.5 1.96 1.04 3.88 1.6 5.82zM153.758 68.278c.02.07.04.14.06.2-.02-.06-.04-.13-.06-.19v-.01z" fill="#fff"/>
    <path d="M100.828 190.588c-.22-.5-.43-.99-.64-1.48a197.217 197.217 0 0 0-36.25 60.17 132.706 132.706 0 0 0 23.03 11.33c5.7-15.63 13.52-30.06 23.05-43l-.94-3.52c-2.14-7.98-4.92-15.9-8.25-23.51v.01zM269.088 126.328c-.09-1.38-.2-2.79-.33-4.17-27.97-2.7-55.49.62-81.06 9.08-8.46 2.79-16.72 6.15-24.72 10.04a200.062 200.062 0 0 0-27.36 16.11 210.34 210.34 0 0 1 10.19 24.14c9.45-7.07 19.6-13.18 30.29-18.2 1.52-.72 3.04-1.41 4.59-2.08 8.88-3.88 18.11-7.03 27.59-9.37 1.92-.48 3.86-.93 5.8-1.32 17.61-3.73 36-4.76 54.61-2.69.73-7.23.86-14.44.41-21.53l-.01-.01z" fill="#66BD5B"/>
    <path d="M163.338 93.338c-.73-1.51-1.41-3.03-2.09-4.57 0 0 0-.04-.01-.05-1.5-3.42-2.89-6.91-4.18-10.43-.55-1.52-1.1-3.05-1.61-4.59.01.04.03.09.05.13-.01-.04-.03-.09-.04-.13-.37-1.12-.73-2.22-1.07-3.34-.2-.63-.39-1.24-.57-1.88-.02-.06-.04-.14-.06-.2-.57-1.93-1.1-3.86-1.6-5.82-.12-.41-.21-.81-.32-1.21v-.02c-.47-1.91-.92-3.84-1.32-5.78-3.8-17.68-4.85-36.13-2.8-54.8-7.23-.72-14.41-.83-21.51-.38-1.4.09-2.77.19-4.16.33-2.7 27.99.68 55.54 9.17 81.12 2.8 8.46 6.16 16.7 10.08 24.67 4.64 9.54 10.04 18.68 16.13 27.35.51-.26 1.02-.51 1.53-.76 7.36-3.58 14.97-6.73 22.65-9.41-7.09-9.42-13.2-19.55-18.25-30.23h-.02z" fill="#FEC578"/>
    <path d="M117.518 208.108c-2.37-9.45-5.53-18.64-9.42-27.49 0-.01-.02-.03-.01-.04.03-.02.04-.04.06-.06 0 .01 0 .03.01.04 3.87 8.87 7.01 18.09 9.36 27.55z" fill="#fff"/>
    <path d="M138.128 187.628c-2.8-8.46-6.16-16.7-10.06-24.69a199.617 199.617 0 0 0-16.14-27.34c-.51.26-1.03.52-1.54.77a211.61 211.61 0 0 1-22.64 9.41c7.09 9.41 13.21 19.54 18.24 30.22.73 1.51 1.42 3.05 2.1 4.58 0 .01 0 .03.01.04a173.74 173.74 0 0 1 9.42 27.49c.48 1.92.92 3.84 1.33 5.78 3.79 17.69 4.85 36.14 2.77 54.82 7.24.73 14.42.83 21.54.38 1.38-.09 2.76-.2 4.15-.34 2.69-27.99-.69-55.54-9.17-81.12h-.01z" fill="#0586C0"/>
    <path d="M132.978 110.418c-3.56-7.26-6.74-14.85-9.44-22.61a172.804 172.804 0 0 1-30.3 18.2c-1.52.72-3.05 1.42-4.59 2.09-.83.36-1.67.72-2.52 1.07-.43.2-.87.37-1.31.55-.12.04-.25.1-.37.15-.13.05-.26.1-.39.16-.34.15-.67.27-1.01.4-.19.09-.38.16-.56.22-.18.08-.38.14-.56.21h-.01c-.25.1-.48.18-.73.27-.45.18-.9.34-1.34.51-.78.28-1.55.58-2.32.86-.74.27-1.47.52-2.21.78h-.03c-.03.02-.08.03-.1.04-.03 0-.05.01-.06.02-.01.01-.04 0-.05.01-.58.2-1.14.38-1.72.58-.58.19-1.17.37-1.74.55-1.15.37-2.32.73-3.49 1.07-1.17.34-2.34.67-3.52.99-1.18.32-2.35.64-3.54.93-1.91.48-3.84.92-5.77 1.32a172.093 172.093 0 0 1-54.63 2.7c-.73 7.25-.86 14.43-.4 21.52.09 1.38.19 2.77.32 4.16 27.97 2.7 55.5-.64 81.06-9.08 8.48-2.8 16.73-6.16 24.72-10.05 9.55-4.62 18.69-10.01 27.37-16.11l-.75-1.53-.01.02zM201.828 17.938c-6.18-3.55-12.66-6.65-19.48-9.2a171.067 171.067 0 0 1-23.03 43l.94 3.5c2.15 7.98 4.93 15.9 8.25 23.51.22.49.44.98.64 1.47a197.424 197.424 0 0 0 36.25-60.14c-1.18-.74-2.37-1.44-3.57-2.14z" fill="#F05C73"/>
    <path d="M388.538 90.328c0-25.83-16.72-43.87-40.67-43.87-14.48 0-24.76 7.09-30.28 14.58v-42.5h-15.88v114.9h15.88v-13c6.53 9.06 17.59 14.37 30.28 14.37 23.57 0 40.67-18.71 40.67-44.48zm-43.57-29.82c16.12 0 27.38 12.26 27.38 29.82 0 17.56-11.26 30.28-27.38 30.28-13.19 0-27.38-9.43-27.38-30.12s13.77-29.97 27.38-29.97v-.01zM481.408 106.928l.36-1.27h-16.99l-.23.68c-3.17 9.36-11.39 14.73-22.55 14.73-14.58 0-24.71-9.48-26.08-24.24h66.65l.09-.9c.33-3.13.46-5.59.46-8.5 0-24.12-16.91-40.97-41.13-40.97-24.22 0-42.35 17.69-42.35 44.03 0 13.11 4.16 24.28 12.03 32.32 7.59 7.74 18.35 12.01 30.31 12.01 19.49 0 34.59-10.69 39.41-27.89h.02zm-65.3-23.39c1.76-14.21 11.59-23.33 25.28-23.33 7.61 0 14.34 2.57 18.96 7.23 4.06 4.1 6.27 9.65 6.42 16.09h-50.67l.01.01zM518.368 26.778h-15.88v21.06h-10.83v13.44h10.83v48.28c0 16.3 7.69 23.89 24.19 23.89h13.51v-13.75h-11.22c-8.02 0-10.6-2.46-10.6-10.14v-48.28h21.82v-13.44h-21.82v-21.06zM558.018 109.558c0 16.3 7.69 23.89 24.19 23.89h13.51v-13.75h-11.22c-8.02 0-10.6-2.46-10.6-10.14v-48.28h21.82v-13.44h-21.82v-21.06h-15.88v21.06h-10.83v13.44h10.83v48.28zM647.658 46.458c-25.33 0-42.35 17.69-42.35 44.03 0 13.11 4.16 24.28 12.03 32.32 7.59 7.74 18.35 12.01 30.31 12.01 19.49 0 34.59-10.69 39.41-27.89l.36-1.27h-16.99l-.23.68c-3.17 9.36-11.39 14.73-22.55 14.73-14.58 0-24.71-9.48-26.08-24.24h66.65l.09-.9c.33-3.13.46-5.59.46-8.5 0-24.12-16.91-40.97-41.13-40.97h.02zm-.61 13.75c7.61 0 14.34 2.57 18.96 7.23 4.06 4.1 6.27 9.65 6.42 16.09h-50.67c1.76-14.21 11.59-23.33 25.28-23.33l.01.01zM746.978 46.308c-11.6 0-20.51 4.28-26.01 12.43v-10.9h-15.88v85.61h15.88v-46.47c0-16.37 7.31-24.33 22.34-24.33h4.66v-16.34h-1 .01zM320.638 148.778h-15.88v21.06h-10.83v13.44h10.83v48.28c0 16.3 7.69 23.89 24.19 23.89h13.51v-13.75h-11.22c-8.02 0-10.6-2.46-10.6-10.14v-48.28h21.82v-13.44h-21.82v-21.06zM394.398 168.458c-25.33 0-42.35 17.69-42.35 44.03 0 13.11 4.16 24.28 12.03 32.32 7.59 7.74 18.35 12.01 30.31 12.01 19.49 0 34.59-10.69 39.41-27.89l.36-1.27h-16.99l-.23.68c-3.17 9.36-11.39 14.73-22.55 14.73-14.58 0-24.71-9.48-26.08-24.24h66.65l.09-.9c.33-3.13.46-5.59.46-8.5 0-24.12-16.91-40.97-41.13-40.97h.02zm-.61 13.75c7.61 0 14.34 2.57 18.96 7.23 4.06 4.1 6.27 9.65 6.42 16.09h-50.67c1.76-14.21 11.59-23.33 25.28-23.33l.01.01zM488.988 168.458c-25.33 0-42.35 17.69-42.35 44.03 0 13.11 4.16 24.28 12.03 32.32 7.59 7.74 18.35 12.01 30.31 12.01 19.49 0 34.59-10.69 39.41-27.89l.36-1.27h-16.99l-.23.68c-3.17 9.36-11.39 14.73-22.55 14.73-14.58 0-24.71-9.48-26.08-24.24h66.65l.09-.9c.33-3.13.46-5.59.46-8.5 0-24.12-16.91-40.97-41.13-40.97h.02zm-.61 13.75c7.61 0 14.34 2.57 18.96 7.23 4.06 4.1 6.27 9.65 6.42 16.09h-50.67c1.76-14.21 11.59-23.33 25.28-23.33l.01.01zM647.968 168.308c-13.21 0-24.36 6.55-29.63 17.23-5.73-11.13-16.53-17.23-30.64-17.23-10.56 0-19.64 4.12-25.4 11.42v-9.89h-15.88v85.61h15.88v-47.08c0-16.53 8.26-26 22.65-26 14.39 0 21.89 9.03 21.89 24.78v48.3h15.73v-47.08c0-16.53 8.25-26 22.65-26 14.4 0 21.89 9.03 21.89 24.78v48.3h15.73v-50.28c0-22.73-13.36-36.85-34.87-36.85v-.01zM714.518 240.178c-3.26 0-5.81-1.62-5.92-4.69h3.93c.11 1.17.84 1.73 1.88 1.73s1.77-.54 1.77-1.43c0-2.81-7.58-1.3-7.54-6.68 0-2.87 2.35-4.47 5.53-4.47s5.53 1.64 5.68 4.54h-4c-.06-.97-.76-1.56-1.75-1.58-.89-.02-1.56.43-1.56 1.38 0 2.64 7.5 1.45 7.5 6.53 0 2.55-1.99 4.67-5.53 4.67h.01zM722.318 224.858h4.36l4.26 10.5 4.21-10.5h4.34v15.17h-3.69v-9.1l-3.39 9.1h-2.98l-3.41-9.12v9.12h-3.69v-15.17h-.01z" fill="#000"/>
</svg>
