<svg width="36" height="36" viewBox="0 0 36 36" fill="none" xmlns="http://www.w3.org/2000/svg">
<path d="M3.86812 35.6409C3.33506 35.5293 2.5421 35.1837 2.06387 34.8546C1.04383 34.1527 0.255474 32.8827 0.0644055 31.6336C0.00562653 31.2493 -0.00999946 27.4989 0.00576168 17.559C0.0260339 4.76841 0.0342738 3.98482 0.152468 3.58923C0.649449 1.92587 1.92352 0.655061 3.60065 0.149889C3.98178 0.0350898 4.87374 0.0258778 17.5567 0.00576134C27.4953 -0.00999923 31.2452 0.00562616 31.6294 0.0644128C33.6204 0.369041 35.2265 1.91259 35.6392 3.91807C35.7381 4.3987 35.75 5.89557 35.75 17.8733C35.75 29.8511 35.7381 31.348 35.6392 31.8286C35.2398 33.7696 33.7652 35.2444 31.8245 35.6439C31.3433 35.7429 29.8575 35.7541 17.8216 35.749C6.27681 35.7441 4.28729 35.7287 3.86812 35.6409ZM14.9158 28.4084C15.0704 28.263 15.0774 28.2125 15.0774 27.2346V26.2127L14.2505 26.2422C13.2815 26.2767 12.8053 26.1721 12.2375 25.7998C11.8023 25.5145 11.5934 25.2511 11.263 24.5711C10.9109 23.8466 10.5917 23.4382 10.1182 23.1059C9.55606 22.7116 9.50197 22.5379 9.91315 22.4476C10.2271 22.3786 10.7654 22.5339 11.1427 22.8022C11.3259 22.9324 11.6812 23.3143 11.9322 23.6507C12.319 24.1691 12.4561 24.2972 12.8312 24.4905C13.2187 24.6902 13.341 24.7185 13.8137 24.7185C14.3817 24.7185 15.0677 24.5593 15.1092 24.4179C15.1226 24.372 15.1735 24.1804 15.2222 23.9923C15.271 23.8041 15.4155 23.5131 15.5433 23.3455C15.6712 23.178 15.7758 23.0285 15.7758 23.0132C15.7758 22.9979 15.6108 22.9632 15.4091 22.9361C13.4117 22.6673 11.9813 21.7757 11.3216 20.3879C10.973 19.6546 10.8174 18.9774 10.7668 17.973C10.7373 17.3888 10.7564 17.071 10.8448 16.6737C10.9831 16.0518 11.3405 15.2739 11.6498 14.9217L11.8709 14.6697L11.7542 14.0937C11.6211 13.4365 11.6513 12.8265 11.8493 12.1743L11.9746 11.7616L12.3213 11.7395C12.8035 11.7089 13.6711 12.0041 14.4477 12.4631L15.0747 12.8336L15.757 12.6837C16.7514 12.4652 18.9926 12.4657 19.9892 12.6845L20.6758 12.8353L21.0368 12.605C21.8742 12.0708 22.785 11.7266 23.3607 11.7266H23.7276L23.8489 12.1282C24.0212 12.6989 24.0604 13.7793 23.9256 14.2393L23.8187 14.604L24.0625 14.9234C24.6946 15.7516 24.931 16.5081 24.9298 17.6987C24.9279 19.4048 24.5126 20.5928 23.5986 21.5054C22.8872 22.2157 21.9742 22.6328 20.6068 22.8722L19.9065 22.9948L20.0739 23.2144C20.166 23.3352 20.313 23.5894 20.4006 23.7794C20.5521 24.108 20.5615 24.2261 20.5948 26.2091L20.6297 28.2934L20.7946 28.4268C21.0163 28.6062 21.2582 28.5949 21.8652 28.3767C23.0189 27.9621 24.3658 27.1559 25.3229 26.3072C30.0957 22.0748 30.2965 14.8603 25.7657 10.3994C24.2175 8.87515 22.3182 7.86676 20.0824 7.3819C19.4742 7.24999 19.1576 7.22795 17.871 7.22795C16.5844 7.22795 16.2678 7.24999 15.6596 7.3819C14.6008 7.6115 13.7425 7.91116 12.8076 8.37758C11.6941 8.9331 10.8001 9.57832 9.90926 10.4693C8.34884 12.0299 7.37257 13.8408 6.89676 16.0572C6.66859 17.1201 6.66845 19.184 6.8965 20.2481C7.68062 23.9075 10.1314 26.8661 13.528 28.254C14.3721 28.5988 14.6769 28.6328 14.9158 28.4084Z" fill="#13505B"/>
</svg>
