<svg width="36" height="36" viewBox="0 0 36 36" fill="none" xmlns="http://www.w3.org/2000/svg">
<g clip-path="url(#clip0_121_91)">
<path d="M3.86812 35.6409C3.33506 35.5293 2.5421 35.1837 2.06387 34.8546C1.04383 34.1527 0.255475 32.8827 0.0644066 31.6336C0.00562762 31.2493 -0.010001 27.4989 0.00576278 17.559C0.026035 4.76841 0.0342749 3.98482 0.152469 3.58923C0.649451 1.92586 1.92352 0.655063 3.60065 0.14989C3.98178 0.0350904 4.87374 0.0258795 17.5567 0.00576247C27.4953 -0.0100007 31.2452 0.00562704 31.6295 0.064414C33.6204 0.36904 35.2265 1.9126 35.6392 3.91807C35.7381 4.3987 35.75 5.89557 35.75 17.8733C35.75 29.8511 35.7381 31.348 35.6392 31.8286C35.2398 33.7696 33.7652 35.2444 31.8245 35.6439C31.3433 35.7429 29.8575 35.7541 17.8216 35.749C6.27682 35.7441 4.28729 35.7287 3.86812 35.6409ZM11.843 28.9129C11.9927 28.8216 12.0899 28.6899 12.1395 28.5115C12.1889 28.3336 12.2133 26.0257 12.2136 21.5207C12.214 14.1954 12.2282 14.4609 11.8213 14.1942C11.6454 14.079 11.4526 14.0666 9.83561 14.0666C7.88372 14.0666 7.75684 14.0887 7.56367 14.4623C7.48044 14.6232 7.46487 15.7476 7.46487 21.5974V28.5414L7.6142 28.7313C7.69633 28.8357 7.82989 28.9479 7.91102 28.9807C7.99214 29.0135 8.85992 29.0422 9.83943 29.0445C11.4846 29.0483 11.6373 29.0383 11.843 28.9129ZM18.7322 28.9063C18.8321 28.8277 18.9461 28.647 18.9857 28.5047C19.0308 28.342 19.0576 26.8323 19.0579 24.4377C19.0582 20.8273 19.0656 20.603 19.1999 20.1184C19.4727 19.134 19.8766 18.5502 20.5386 18.1833C20.8855 17.9912 20.9579 17.9781 21.6773 17.9781C22.3582 17.9781 22.4842 17.9979 22.7861 18.1521C23.4032 18.4673 23.8068 19.0785 24.0312 20.0377C24.0758 20.2283 24.1221 22.0024 24.1483 24.5246L24.1915 28.6963L24.3505 28.8553C24.5074 29.0122 24.5351 29.0145 26.502 29.0348L28.4945 29.0553L28.7403 28.8095L28.9861 28.5636L28.9562 23.9694C28.9248 19.1554 28.9134 18.9612 28.5867 17.6731C28.1289 15.8684 27.0375 14.6342 25.4556 14.1325C24.2434 13.748 22.5362 13.7571 21.3338 14.1545C20.6101 14.3937 19.8414 14.9083 19.4204 15.4354L19.0932 15.8451L19.0561 15.2003C19.0175 14.5302 18.9384 14.2941 18.7121 14.1729C18.6303 14.1292 17.8303 14.1015 16.648 14.1015H14.7175L14.5133 14.3057L14.3092 14.5098L14.3117 21.5176C14.3137 27.2002 14.3316 28.5569 14.4066 28.6922C14.5917 29.0262 14.7066 29.0441 16.6918 29.0467C18.4606 29.0491 18.5594 29.0423 18.7322 28.9063ZM10.7237 12.6471C11.6908 12.3451 12.4081 11.6223 12.7362 10.6193C12.9317 10.0219 12.865 9.10112 12.5826 8.49798C11.6783 6.5664 9.2181 6.09437 7.71329 7.56373C6.06491 9.17328 6.69616 11.8881 8.89568 12.6487C9.36605 12.8114 10.1997 12.8106 10.7237 12.6471Z" fill="#13505B"/>
</g>
<defs>
<clipPath id="clip0_121_91">
<rect width="35.75" height="35.75" fill="white"/>
</clipPath>
</defs>
</svg>
